<svg data-name="Layer 1" xmlns="http://www.w3.org/2000/svg" width="941" height="780">
  <circle cx="568" cy="373" r="373" fill="#f2f2f2"/>
  <path d="M912 732c0 15.46-204.16 48-456 48S0 747.46 0 732s204.16-8 456-8 456-7.46 456 8z" fill="#3f3d56"/>
  <path d="M912 732c0 15.46-204.16 48-456 48S0 747.46 0 732s204.16-8 456-8 456-7.46 456 8z" opacity=".1"/>
  <ellipse cx="456" cy="732" rx="456" ry="28" fill="#3f3d56"/>
  <path d="M722.19 599.41c0 63.2 39.65 114.35 88.65 114.35" fill="#3f3d56"/>
  <path d="M810.84 713.76c0-63.91 44.25-115.63 98.93-115.63M754.3 605.14c0 60.04 25.3 108.62 56.54 108.62" fill="#3084f2"/>
  <path d="M810.84 713.76c0-81.67 51.14-147.75 114.35-147.75" fill="#3f3d56"/>
  <path d="M792.19 714.57s12.57-.39 16.36-3.09 19.34-5.92 20.28-1.6 18.9 21.53 4.7 21.64-32.98-2.2-36.76-4.51-4.58-12.44-4.58-12.44z" fill="#a8a8a8"/>
  <path d="M833.78 730.02c-14.19.11-32.98-2.21-36.76-4.52-2.88-1.75-4.03-8.05-4.41-10.95l-.42.02s.8 10.14 4.58 12.44 22.57 4.63 36.76 4.51c4.1-.03 5.51-1.49 5.44-3.65-.57 1.3-2.14 2.12-5.19 2.15z" opacity=".2"/>
  <path d="M572.64 235.32s12.79 26.86 7.67 39.65 19.19 26.87 19.19 26.87l31.98-17.91V260.9l-5.12-10.23s-20.46-11.52-17.9-29.43-35.82 14.08-35.82 14.08z" fill="#ffb9b9"/>
  <path d="M572.64 235.32s12.79 26.86 7.67 39.65 19.19 26.87 19.19 26.87l31.98-17.91V260.9l-5.12-10.23s-20.46-11.52-17.9-29.43-35.82 14.08-35.82 14.08z" opacity=".1"/>
  <path d="M548.33 347.89s-2.56 28.14-2.56 31.98-3.84 16.63-3.84 16.63-14.07 65.24-23.02 71.64-14.07 46.05 0 43.49 17.9-37.1 17.9-37.1l29.13-55 4.14-66.52z" fill="#ffb9b9"/>
  <path d="M558.56 291.6h-10.23s-10.23 61.4 0 63.96 29.42 2.56 29.42 2.56z" fill="#575a89"/>
  <path fill="#ffb9b9" d="M616.13 686.88l5.12 24.31 10.23-7.68-5.12-21.74-10.23 3.84v1.27z"/>
  <path d="M570.08 427.2l-7.68 5.12s-3.84 44.77 5.12 79.31 15.35 75.47 15.35 75.47 15.35 102.34 19.19 104.9 28.14 3.84 29.42-1.28-8.95-101.06-8.95-101.06-7.68-80.59-1.28-90.82c0 0 20.46 88.26 26.86 97.22 0 0 8.95 97.22 14.07 99.78s29.42 3.84 30.7-1.28-7.67-115.13-11.51-124.09-5.12-141.99-14.07-140.71-97.22-2.56-97.22-2.56z" fill="#2f2e41"/>
  <circle cx="585.43" cy="217.41" r="29.42" fill="#ffb9b9"/>
  <path d="M596.94 282.65l-6.4-11.52s-7.67-10.23-11.5-7.67-3.85 11.51-3.85 11.51-29.42 10.24-26.86 24.3 19.19 38.38 19.19 38.38 2.56 20.47 0 25.59-7.68 8.95-3.84 14.07 5.12 6.4 3.84 12.8-3.84 8.95-1.28 11.5-1.28 29.43-3.84 30.7 81.87 14.08 88.27 10.24 24.3-3.84 23.02-7.67-6.4-26.87-6.4-30.7 0-20.47-1.27-21.75 1.28-20.47 1.28-20.47l-6.4-53.73 20.47-31.98s-5.12-17.9-29.42-20.47-31.03-8.95-31.03-8.95-2.23 11.51-7.35 14.07-16.63 21.75-16.63 21.75z" fill="#575a89"/>
  <path d="M690.32 317.19l7.68 57.56-16.63 83.15s-6.4 47.33-19.19 46.05 0-51.16 0-51.16l10.24-78.04s-16.63-39.65-12.8-44.77 30.7-12.8 30.7-12.8z" fill="#ffb9b9"/>
  <path d="M627.64 699.68s-16.63-8.96-20.47-7.68-7.67 19.19-7.67 19.19-29.42 21.75-10.23 26.86 26.86-6.4 26.86-6.4 19.19-10.23 19.19-12.78-2.56-19.2-2.56-19.2zM666.02 693.28s-7.68 42.22-2.56 44.77 26.86 6.4 29.42 0 2.56-21.74 1.28-26.86-5.11-17.9-5.11-17.9zM580.3 170.87a6.83 6.83 0 00-3.53-.1c-1.47.47-2.43 1.83-3.55 2.9-2.94 2.78-7.13 3.65-10.95 4.97s-7.85 3.65-8.8 7.58a41.28 41.28 0 00-.42 4.78c-.57 4.63-4.1 8.8-3.48 13.44.42 3.02 2.57 5.59 3.02 8.6.49 3.37-1.21 6.88-.26 10.15.93 3.2 4.07 5.15 6.97 6.8q1.86-11.84 4.48-23.53a8.5 8.5 0 011.6-3.9c2.56-2.9 7.61-1.25 10.95-3.24 1.27-.75 2.2-2 3.54-2.64 3.85-1.84 8.03 2.24 12.3 2.28 1.89.02 3.96-.73 5.55.28a5.07 5.07 0 011.62 2c1.52 2.85 2.36 6.06 4.14 8.77s4.95 4.92 8.1 4.16c-.48-2.44 1.43-4.64 2.2-7 1.32-4.08-.84-8.5-.32-12.76.5-3.99 3.1-8.67.24-11.5a8.09 8.09 0 00-3.38-1.7c-10.1-3.2-19.42-8.57-30.02-10.34z" fill="#2f2e41"/>
  <path d="M668.58 271.13l12.79 5.12s16.63 53.73 12.8 53.73-38.38 8.95-38.38 5.12 2.55-63.97 12.79-63.97z" fill="#575a89"/>
  <path fill="#3f3d56" d="M466 162H70v130h15v34l34-34h347V162zM466 512H70v130h15v34l34-34h347V512zM140 338h396v130h-15v34l-34-34H140V338z"/>
  <path fill="#3084f2" opacity=".3" d="M116 183.5h304v12H116zM116 206.5h152v12H116z"/>
  <circle cx="133" cy="253.5" r="17" fill="#3084f2" opacity=".3"/>
  <path fill="#3084f2" d="M176 357.5h304v12H176zM176 380.5h152v12H176z"/>
  <circle cx="193" cy="427.5" r="17" fill="#3084f2"/>
  <path fill="#3084f2" opacity=".3" d="M116 533.5h304v12H116zM116 556.5h152v12H116z"/>
  <circle cx="133" cy="603.5" r="17" fill="#3084f2" opacity=".3"/>
</svg>
