<svg data-name="Layer 1" xmlns="http://www.w3.org/2000/svg" xmlns:xlink="http://www.w3.org/1999/xlink" width="637.48" height="720.36">
  <defs>
    <linearGradient id="a" x1="386.02" y1="468.02" x2="386.02" y2="89.83" gradientTransform="translate(-281.25 -89.83)" gradientUnits="userSpaceOnUse">
      <stop offset="0" stop-color="gray" stop-opacity=".25"/>
      <stop offset=".54" stop-color="gray" stop-opacity=".12"/>
      <stop offset="1" stop-color="gray" stop-opacity=".1"/>
    </linearGradient>
    <linearGradient id="b" x1="789.88" y1="643.24" x2="789.88" y2="265.05" xlink:href="#a"/>
  </defs>
  <path d="M7.96 0h193.6a7.96 7.96 0 017.97 7.96v362.27a7.96 7.96 0 01-7.96 7.96H7.97A7.96 7.96 0 010 370.23V7.96A7.96 7.96 0 017.96 0z" fill="url(#a)"/>
  <rect x="2.84" y="5.11" width="203.86" height="367.97" rx="13.64" fill="#fff"/>
  <path d="M155.98 14.34a16.53 16.53 0 01-16.29 14.06H69.28a16.53 16.53 0 01-16.29-14.06h-37.3a7.74 7.74 0 00-7.74 7.74V356.1a7.74 7.74 0 007.73 7.74h178.16a7.74 7.74 0 007.74-7.74V22.08a7.74 7.74 0 00-7.74-7.74z" fill="#fafafa"/>
  <rect x="82.34" y="18.74" width="45.43" height="2.84" rx="1.42" fill="#dbdbdb"/>
  <circle cx="137.42" cy="19.88" r="1.7" fill="#dbdbdb"/>
  <path d="M411.82 175.23h193.6a7.96 7.96 0 017.96 7.96v362.27a7.96 7.96 0 01-7.96 7.96h-193.6a7.96 7.96 0 01-7.96-7.96V183.2a7.96 7.96 0 017.96-7.96z" fill="url(#b)"/>
  <rect x="406.69" y="180.34" width="203.86" height="367.97" rx="13.64" fill="#fff"/>
  <path d="M559.83 189.57a16.53 16.53 0 01-16.28 14.06h-70.42a16.53 16.53 0 01-16.29-14.06h-37.3a7.74 7.74 0 00-7.74 7.74v334.03a7.74 7.74 0 007.74 7.74h178.15a7.74 7.74 0 007.74-7.73l.01-334.04a7.74 7.74 0 00-7.74-7.74z" fill="#fafafa"/>
  <rect x="486.19" y="193.97" width="45.43" height="2.84" rx="1.42" fill="#dbdbdb"/>
  <circle cx="541.27" cy="195.11" r="1.7" fill="#dbdbdb"/>
  <g opacity=".8" fill="none" stroke="#3084f2" stroke-miterlimit="10" stroke-width="2">
    <path d="M495.93 291.91v6h-6"/>
    <path stroke-dasharray="9.29725 9.29725" d="M480.63 297.91h-32.54"/>
    <path d="M443.45 297.91h-6v-6"/>
    <path stroke-dasharray="13.54588 13.54588" d="M437.45 278.37v-20.32"/>
    <path d="M437.45 251.28v-6h6"/>
    <path stroke-dasharray="9.29725 9.29725" d="M452.74 245.28h32.54"/>
    <path d="M489.93 245.28h6v6"/>
    <path stroke-dasharray="13.54588 13.54588" d="M495.93 264.82v20.32"/>
  </g>
  <g opacity=".8" fill="none" stroke="#3084f2" stroke-miterlimit="10" stroke-width="2">
    <path d="M583.01 490.77v6h-6"/>
    <path stroke-dasharray="9.29725 9.29725" d="M567.71 496.77h-32.54"/>
    <path d="M530.52 496.77h-6v-6"/>
    <path stroke-dasharray="13.54588 13.54588" d="M524.53 477.22V456.9"/>
    <path d="M524.52 450.13v-6h6"/>
    <path stroke-dasharray="9.29725 9.29725" d="M539.82 444.13h32.54"/>
    <path d="M577.01 444.13h6v6"/>
    <path stroke-dasharray="13.54588 13.54588" d="M583.01 463.68v20.31"/>
  </g>
  <g opacity=".8" fill="none" stroke="#3084f2" stroke-miterlimit="10" stroke-width="2" stroke-dasharray="12">
    <path d="M437.12 325.53h146.22M437.12 354.78h146.22M437.12 384.02h146.22M437.12 413.26h146.22"/>
  </g>
  <path fill="none" stroke="#3ad29f" stroke-miterlimit="10" stroke-width="2" stroke-dasharray="12" d="M232.95 40.71h277v102M104.48 438.36v188h404v-32"/>
  <path fill="#f55f44" opacity=".5" d="M205.48 513.36h9v9h-9zM453.48 58.36h9v9h-9zM115.48 450.36h9v9h-9zM196.48 675.36h9v9h-9zM421.48 711.36h9v9h-9zM309.48 310.36h9v9h-9zM560.48 590.36h9v9h-9zM628.48 99.36h9v9h-9z"/>
</svg>
