<svg data-name="Layer 1" xmlns="http://www.w3.org/2000/svg" width="964.75" height="722.16">
  <circle cx="123" cy="415.88" r="123" fill="#f2f2f2"/>
  <circle cx="143" cy="397.88" r="123" fill="#3384ff"/>
  <path fill="#3f3d56" d="M171.86 652.56h158.41v1.87H171.86z"/>
  <path d="M251 654.88c-84.36 0-153-68.63-153-153s68.64-153 153-153 153 68.64 153 153-68.64 153-153 153zm0-304c-83.26 0-151 67.74-151 151s67.74 151 151 151 151-67.74 151-151-67.74-151-151-151z" fill="#3f3d56"/>
  <path d="M687.9 169.22H684V62.04A62.04 62.04 0 00621.95 0H394.86a62.04 62.04 0 00-62.03 62.04v588.03a62.04 62.04 0 0062.03 62.04h227.1a62.04 62.04 0 0062.03-62.04V245.52h3.91z" fill="#3f3d56"/>
  <path fill="#3f3d56" d="M292.27 710.19h672.48v2.4H292.27z"/>
  <path d="M622.99 17.6h-29.64a22.01 22.01 0 01-20.38 30.33h-130.1a22.01 22.01 0 01-20.38-30.32h-27.68a46.33 46.33 0 00-46.33 46.33V651.1a46.33 46.33 0 0046.33 46.33h228.18a46.33 46.33 0 0046.33-46.33V63.94a46.33 46.33 0 00-46.33-46.33zM618 290a12.04 12.04 0 01-12 12h-58a12.04 12.04 0 01-12-12v-3a12.04 12.04 0 0112-12h58a12.04 12.04 0 0112 12zm6.5-53a12.04 12.04 0 01-12 12h-208a12.04 12.04 0 01-12-12v-3a12.04 12.04 0 0112-12h208a12.04 12.04 0 0112 12zm0-53a12.04 12.04 0 01-12 12h-208a12.04 12.04 0 01-12-12v-3a12.04 12.04 0 0112-12h208a12.04 12.04 0 0112 12zm0-53a12.04 12.04 0 01-12 12h-208a12.04 12.04 0 01-12-12v-3a12.04 12.04 0 0112-12h208a12.04 12.04 0 0112 12z" fill="#3384ff"/>
  <circle cx="410.01" cy="236" r="7" fill="#d0cde1"/>
  <circle cx="433.01" cy="236" r="7" fill="#d0cde1"/>
  <circle cx="456.01" cy="236" r="7" fill="#d0cde1"/>
  <circle cx="479.01" cy="236" r="7" fill="#d0cde1"/>
  <circle cx="554.01" cy="289" r="7" fill="#d0cde1"/>
  <circle cx="577.01" cy="289" r="7" fill="#d0cde1"/>
  <circle cx="600.01" cy="289" r="7" fill="#d0cde1"/>
  <path d="M395.92 413.01c-7.27-4.37-16.04-4.04-19.37-3.7 1.27 3.1 5.08 11 12.35 15.38 7.3 4.38 16.05 4.04 19.38 3.7-1.27-3.1-5.08-11-12.36-15.38zM430.1 499.8h-45.46a10.23 10.23 0 000 20.45h45.46a10.23 10.23 0 000-20.45z" fill="#d0cde1"/>
  <path d="M635.93 391.84H381.08a22.58 22.58 0 00-22.57 22.58v124.16a22.58 22.58 0 0022.57 22.58h254.85a22.58 22.58 0 0022.58-22.58V414.42a22.58 22.58 0 00-22.58-22.58zm-261.15 15.4c.5-.09 12.43-2.12 22.32 3.82 9.88 5.95 13.67 17.45 13.83 17.93l.4 1.24-1.28.23a34.04 34.04 0 01-5.53.4c-4.5 0-11-.74-16.8-4.23-9.87-5.94-13.67-17.44-13.82-17.92l-.4-1.24zm55.32 115.28h-45.46a12.5 12.5 0 110-25h45.46a12.5 12.5 0 010 25zm206.82-2.27a13.68 13.68 0 01-13.64 13.64H589.2a13.68 13.68 0 01-13.64-13.64V499.8a13.68 13.68 0 0113.64-13.64h34.1a13.68 13.68 0 0113.63 13.64z" fill="#d0cde1"/>
  <path d="M599.99 516.27H585.2a3.98 3.98 0 000 7.96H600a3.98 3.98 0 000-7.96zm0 5.68H585.2a1.7 1.7 0 010-3.4H600a1.7 1.7 0 010 3.4zM627.26 516.27h-14.77a3.98 3.98 0 000 7.96h14.77a3.98 3.98 0 000-7.96zm0 5.68h-14.77a1.7 1.7 0 110-3.4h14.77a1.7 1.7 0 010 3.4zM599.99 506.05H585.2a3.98 3.98 0 000 7.95H600a3.98 3.98 0 000-7.95zm0 5.68H585.2a1.7 1.7 0 010-3.41H600a1.7 1.7 0 010 3.4zM627.26 506.05h-14.77a3.98 3.98 0 000 7.95h14.77a3.98 3.98 0 000-7.95zm0 5.68h-14.77a1.7 1.7 0 110-3.41h14.77a1.7 1.7 0 010 3.4zM599.99 495.82H585.2a3.98 3.98 0 100 7.95H600a3.98 3.98 0 000-7.95zm0 5.68H585.2a1.7 1.7 0 010-3.4H600a1.7 1.7 0 010 3.4zM627.26 495.82h-14.77a3.98 3.98 0 100 7.95h14.77a3.98 3.98 0 000-7.95zm0 5.68h-14.77a1.7 1.7 0 110-3.4h14.77a1.7 1.7 0 010 3.4z" fill="#d0cde1"/>
  <path fill="#f2f2f2" d="M837 60h-28V32h28z"/>
  <path fill="#3384ff" d="M831 67h-28V39h28z"/>
  <path d="M776 49h46v46h-46zm44 2h-42v42h42z" fill="#3f3d56"/>
  <path fill="#f2f2f2" d="M262.01 263h28v28h-28z"/>
  <path fill="#3384ff" d="M268.01 256h28v28h-28z"/>
  <path d="M323 274h-46v-46h46zm-44-2h42v-42h-42z" fill="#3f3d56"/>
  <path d="M738.03 421.85s-17.45 36.34-5.82 37.8 14.54-32.71 14.54-32.71zM804.18 654.46l-11.63 20.62 21.08 13.19 5.03-24.34-14.48-9.47z" fill="#ffb9b9"/>
  <path d="M799.21 677.94s-6.38-10.4-8.7-8.66-11.83 9.28-11.83 9.28l-12.41 11.89s-41.93 4.43-15.29 19.12 41.37 2.51 41.37 2.51 37.31 1.94 36.7-8.47-12.63-26.88-12.63-26.88-15.16 10.17-17.2 1.2z" fill="#2f2e41"/>
  <path d="M799.21 677.94s-6.38-10.4-8.7-8.66-11.83 9.28-11.83 9.28l-12.41 11.89s-41.93 4.43-15.29 19.12 41.37 2.51 41.37 2.51 37.31 1.94 36.7-8.47-12.63-26.88-12.63-26.88-15.16 10.17-17.2 1.2z" opacity=".1"/>
  <path d="M855.79 421.48l-10.9 131.94s-.37 78.87-12 94.14-12 22.9-12 22.9l-23.98-12.36s8-.73 4.36-5.82-14.54 0-4.36-7.27 12.36-7.5 9.81-10.66a17.57 17.57 0 01-3.27-6.78l6.54-81.42-12.35-141.75z" fill="#2f2e41"/>
  <path d="M855.79 421.48l-10.9 131.94s-.37 78.87-12 94.14-12 22.9-12 22.9l-23.98-12.36s8-.73 4.36-5.82-14.54 0-4.36-7.27 12.36-7.5 9.81-10.66a17.57 17.57 0 01-3.27-6.78l6.54-81.42-12.35-141.75z" opacity=".1"/>
  <path fill="#ffb9b9" d="M825.99 654.46l10.17 26.9 29.08-10.9-18.17-18.9-21.08 2.9z"/>
  <path d="M840.42 669.8s-10.86-6.8-12.22-4.08-6.79 14.26-6.79 14.26l-6.11 16.98s-37.35 23.77-5.43 25.12 40.06-16.97 40.06-16.97 36-15.62 30.56-25.13-24.45-19.36-24.45-19.36-9.5 16.65-15.62 9.18zM763.47 421.85l-5.81 121.4s28.35 80.68 53.06 93.77c0 0 0 15.99 5.82 18.9a14.6 14.6 0 017.27 8.72l31.98-8s-8-8-5.09-11.63-9.45-11.63-9.45-11.63l-31.98-77.78s-5.1-2.18-6.55-9.45-4.36-7.27 2.91-8.72 7.27-8.72 7.27-8.72l23.99-110.5z" fill="#2f2e41"/>
  <circle cx="789.64" cy="202.32" r="29.08" fill="#ffb9b9"/>
  <path d="M815.45 204.13s2.18 37.08 5.08 40.71-30.53 2.91-30.53 2.91 2.18-31.26 0-34.17 25.45-9.45 25.45-9.45z" fill="#ffb9b9"/>
  <path d="M825.26 233.58s-27.62-2.91-37.8 5.81a74.8 74.8 0 01-10.41 7.45 21.35 21.35 0 00-10.36 17.68l-5.4 165.32s82.14-7.26 97.4 0c0 0 .73-16.71 2.19-18.9 1.06-1.59 2.9-64.99 3.8-99.23a75.4 75.4 0 00-19.08-52.63c-4.4-4.88-9.33-8.97-14.53-10.97 0 0 1.46-13.8-5.81-14.53z" fill="#575a89"/>
  <path d="M780.92 248.11a21.47 21.47 0 00-15.8 17.78l-10.37 73.82-14.54 58.88s-7.27 6.54-4.36 10.17-3.64 18.9-3.64 18.9l18.18 5.82s2.18-15.27 5.81-16c3.2-.63 38.95-96.15 47.57-119.3l1.86-5s-1.45-48.7-24.71-45.07z" fill="#575a89"/>
  <path d="M805.27 292.82l-43.98 118.97s42.52-80.44 43.98-118.97z" opacity=".1"/>
  <path d="M804.83 210.89c-2.46-.15-4.86.68-7.3 1-8.74 1.16-17.83-5.18-19.76-13.78a10.57 10.57 0 00-1-3.29c-1.35-2.2-4.41-2.61-6.94-2.1s-4.92 1.68-7.49 1.81c-3.97.21-7.78-2.23-9.9-5.6a19 19 0 01-2.42-11.47l1.9 2a9.67 9.67 0 00.86-5.25 6.1 6.1 0 015.78 1.47c1.68.18.4-3.1 1.66-4.25a2.88 2.88 0 012.02-.37c3.57.03 6.46-2.7 9.27-4.9a39.4 39.4 0 0116.64-7.59c4.03-.78 8.32-.91 12.14.6a25.93 25.93 0 018.2 5.8c5.98 5.76 11.28 12.52 13.77 20.44a34.4 34.4 0 01.17 19.95c-1 3.39-4.03 14.98-8.45 15.25-5.57.34-2.23-9.31-9.15-9.72z" fill="#2f2e41"/>
</svg>
