<svg width="75" height="75" fill="none" xmlns="http://www.w3.org/2000/svg">
  <path d="M6.7 41.84c0-5.27 1.18-9.47 3.53-12.59 2.38-3.13 5.62-4.69 9.72-4.69 3.3 0 6.01 1.23 8.16 3.69V11h9.06v48H29l-.44-3.6a10.63 10.63 0 01-8.68 4.23c-3.98 0-7.18-1.57-9.6-4.7-2.4-3.14-3.59-7.5-3.59-13.09zm9.03.66c0 3.17.55 5.6 1.66 7.28a5.4 5.4 0 004.81 2.53c2.8 0 4.76-1.17 5.9-3.53V35.44c-1.12-2.36-3.07-3.53-5.84-3.53-4.35 0-6.53 3.53-6.53 10.59zm52.5-.1c0 5.42-1.15 9.65-3.46 12.7-2.31 3.01-5.54 4.52-9.69 4.52-3.67 0-6.6-1.4-8.78-4.21L45.9 59h-8.13V11h9.03v17.22a10.29 10.29 0 018.22-3.66c4.12 0 7.35 1.52 9.69 4.57 2.35 3.02 3.53 7.28 3.53 12.78v.5zm-9.02-.65c0-3.42-.55-5.9-1.63-7.47-1.08-1.58-2.7-2.37-4.84-2.37-2.88 0-4.86 1.17-5.94 3.53v13.34c1.1 2.38 3.1 3.56 6 3.56 2.92 0 4.83-1.43 5.75-4.3.44-1.38.66-3.48.66-6.29z" fill="#fff"/>
</svg>
