<svg data-name="Layer 1" xmlns="http://www.w3.org/2000/svg" width="798.68" height="647.01">
  <path fill="#f2f2f2" d="M126.83 0L74.02 103h10.66v84H30.95L0 247.39l383.53 196.64 126.83-247.38L126.83 0z"/>
  <path fill="#3f3d56" d="M115.68 67.01h588v295h-588z"/>
  <path fill="#3084f2" opacity=".3" d="M198.18 173.01h434v1h-434zM198.68 198.01h434v1h-434zM198.68 248.01h434v1h-434zM198.68 270.01h434v1h-434zM198.68 223.01h434v1h-434z"/>
  <ellipse cx="566.68" cy="630.01" rx="186" ry="17" fill="#3f3d56"/>
  <path fill="#3084f2" d="M210.72 270.73l-1.38-1.44 64.6-61.58 56.95 40.96 46.05-51.05 20.2 17.16 54.92-32.96 61.02 41.01 95.76-54.47.99 1.74-96.84 55.08L452 184.2l-55.07 33.05-19.8-16.84-45.95 50.94-57.06-41.03-63.4 60.42z"/>
  <path d="M396.76 595.85c4.7 17.37 20.8 28.13 20.8 28.13s8.47-17.4 3.77-34.78-20.8-28.14-20.8-28.14-8.47 17.41-3.77 34.79z" fill="#3f3d56"/>
  <path d="M403.66 592.11c12.9 12.56 14.47 31.86 14.47 31.86s-19.33-1.06-32.23-13.61-14.47-31.86-14.47-31.86 19.34 1.06 32.23 13.61z" fill="#3084f2"/>
  <circle cx="765.18" cy="53.51" r="33.5" fill="#3084f2" opacity=".4"/>
  <circle cx="703.18" cy="69.51" r="23.5" fill="#3084f2" opacity=".4"/>
  <circle cx="674.18" cy="500.51" r="12.5" fill="#3084f2" opacity=".4"/>
  <circle cx="461.18" cy="565.51" r="9.5" fill="#3084f2" opacity=".4"/>
  <circle cx="429.18" cy="439.51" r="12.5" fill="#3084f2" opacity=".4"/>
  <circle cx="608.18" cy="173.51" r="13" fill="#3084f2"/>
  <path d="M523.71 408.97l-11.02 1.23s-4.9 22.04 0 51.43 11.02 58.77 11.02 58.77 4.9 95.51 7.35 96.74 24.5 8.57 25.72 1.22 1.22-175.1 1.22-175.1l17.14 80.82s2.45 101.63 7.35 101.63 20.82-1.22 20.82-9.8 3.67-121.22 3.67-121.22-1.22-83.27-6.12-85.72-77.15 0-77.15 0z" fill="#2f2e41"/>
  <path d="M533.51 613.47s-11.02-1.23-13.47 0-6.12 9.8 0 14.69 22.04 12.25 26.94 12.25a25.33 25.33 0 009.8-2.45l-2.45-20.82zM582.49 619.59l1.22 17.14s15.92 2.45 17.15 0 13.47-8.57 14.7-9.8 2.44-14.69-4.9-15.91-9.8 2.45-9.8 2.45z" fill="#2f2e41"/>
  <path d="M479.63 306.12s-29.39 28.16-25.71 42.85 33.06 57.56 33.06 57.56 28.16 14.69 31.84 0-19.6-11.03-19.6-11.03l-18.36-44.08 20.81-29.39zM610.95 263.27s26.77-17.22 26.15-29.04-16.76-49.12-16.76-49.12-12.63-26.25-17.65-15.53 6.6 22.15 6.6 22.15l7.5 36.58-20.38 19.44z" fill="#ffb8b8"/>
  <circle cx="544.53" cy="216.73" r="22.04" fill="#ffb8b8"/>
  <path d="M533.51 230.2l3.67 23.26 26.94-4.9s-1.22-23.26-1.22-25.71-29.39 7.35-29.39 7.35z" fill="#ffb8b8"/>
  <path d="M532.29 253.46s30.6-7.34 34.28-4.9 22.04 4.9 22.04 4.9l20.82 31.84-6.12 40.4s-1.23 64.9 1.22 75.93 15.92 12.24-12.24 14.7-33.07-1.23-52.66 3.66-35.5-2.44-30.61-7.34 13.47-83.27 3.67-90.62-13.47-45.3-13.47-45.3 33.07-17.14 33.07-23.27z" fill="#d0cde1"/>
  <path d="M584.94 257.14l3.67-3.68 7.35-7.34s23.88 10.4 22.65 14.08-9.18 25.1-9.18 25.1l-11.02 3.67zM513.92 279.18l-14.7-2.45s-11.02 12.24-14.69 17.14-11.02 17.14-11.02 17.14l25.71 18.37 19.6-20.81z" fill="#d0cde1"/>
  <path d="M552.22 190.02l-.22-1.76a13.88 13.88 0 00-4.41.7 7.25 7.25 0 01.27-3.18 14.1 14.1 0 00-4.09 1.77l-.89-3.22-12.24 6.03c-4.4 2.17-9.02 4.55-11.54 8.76-2.8 4.68-2.3 10.71-.4 15.83s5.1 9.64 7.65 14.47a36.15 36.15 0 003.48 5.91c4.62 5.76 13.61 6.92 20.12 3.45a11.65 11.65 0 005.58-5.74 37.3 37.3 0 001.12-4.76c.8-3.29 1.74-10.08 4.41-12.16 1.18-.92 3.51 2.12 4.48.99 2.51-2.9 1.98-7.37.43-10.88a79.34 79.34 0 00-5.22-10.18c-.85-1.32-8.55-6.24-8.53-6.03z" fill="#2f2e41"/>
  <path fill="#3f3d56" d="M12.68 115.01h64v64h-64z"/>
</svg>
