<svg data-name="Layer 1" xmlns="http://www.w3.org/2000/svg" width="1098.75" height="632.37">
  <ellipse cx="549.38" cy="600.77" rx="549.38" ry="31.6" fill="#f2f2f2"/>
  <path fill="#f2f2f2" d="M174.97 0h825.32v26.26H174.97z"/>
  <circle cx="197.05" cy="12.74" r="6.8" fill="#3384ff"/>
  <circle cx="219.14" cy="12.74" r="6.8" fill="#3384ff"/>
  <circle cx="241.22" cy="12.74" r="6.8" fill="#3384ff"/>
  <path fill="#3f3d56" d="M175.55 415.28l-.58.5V592.9h825.32V281.78l-9.84.75-814.9 132.75zM234.53 175.64H465v9.29H234.53zM234.53 196.09H465v9.29H234.53zM234.53 216.53h78.06v9.29h-78.06z"/>
  <path fill="#fff" d="M704.53 433.64H935v9.29H704.53zM704.53 454.09H935v9.29H704.53zM704.53 474.53h78.06v9.29h-78.06z"/>
  <circle cx="561.34" cy="575.27" r="9.07" fill="#f2f2f2"/>
  <circle cx="587.63" cy="576.18" r="9.07" fill="#f2f2f2"/>
  <circle cx="613.92" cy="577.08" r="9.07" fill="#f2f2f2"/>
  <circle cx="587.71" cy="576.18" r="7.25" fill="#3f3d56"/>
  <path fill="#3f3d56" d="M310.53 282.01h78.06v17.81h-78.06z"/>
  <path fill="#fff" d="M774.53 523.01h78.06v17.81h-78.06z"/>
  <circle cx="350" cy="291.01" r="54" fill="#3384ff" opacity=".3"/>
  <circle cx="350" cy="291.01" r="36" fill="#3384ff" opacity=".3"/>
  <circle cx="350" cy="291.01" r="25" fill="#3384ff"/>
  <circle cx="804.38" cy="157.19" r="54" fill="#3384ff" opacity=".3"/>
  <circle cx="804.38" cy="157.19" r="36" fill="#3384ff" opacity=".3"/>
  <circle cx="804.38" cy="157.19" r="25" fill="#3384ff"/>
  <circle cx="814" cy="532.01" r="54" fill="#3384ff" opacity=".3"/>
  <circle cx="814" cy="532.01" r="36" fill="#3384ff" opacity=".3"/>
  <circle cx="814" cy="532.01" r="25" fill="#3384ff"/>
  <path fill="#3384ff" d="M112.15 110.22l-22.22-.86 1.1-28.58 22.23.87z"/>
  <path d="M191.29 180.86s30.78-14.7 30.29-2-31.03 21.05-31.03 21.05z" fill="#ffb9b9"/>
  <path d="M174.4 288.32s14.52 35.55 19.89 61.2 13.54 60.94 3.03 85.97-40.4 98.6-40.7 106.53 2.56 16-3.8 15.76-40.9-11.13-42.3-15.95 11.79-17.04 11.79-17.04l32.57-102.08-33.99-66.5-24.51 99.21-4.8 123.83s-23.57-7.27-27-1.05c0 0-10.55-14.72-11.9-21.13s5-128.59 5-128.59S36.03 289.32 53.5 290s85.87-41.2 120.9-1.68z" fill="#2f2e41"/>
  <path d="M153.07 551.43s16.11 35.6 17.64 37.25 12.02 17.95 4.08 17.65-26.68-8.99-40.47-22.24-31.99-36.22-30.34-37.75 12.95-5.86 12.95-5.86zM88.7 571.19s.98 15.94 3.9 22.4 2.57 16-5.37 15.7-28.45-4.28-28.45-4.28-1.22-9.59.43-11.12 8.67-18.74 5.68-23.62 23.82.92 23.82.92z" fill="#2f2e41"/>
  <path d="M76.96 54S60.04 80.39 53.45 86.49s11.96 19.55 11.96 19.55l33.21 4.46s-.41-30.22 1.3-33.33S76.96 54 76.96 54z" fill="#ffb9b9"/>
  <path d="M105.83 88.51S99 100.97 92.64 100.72s-39.2-14.24-40.6-19.06-10.88 34.56-10.88 34.56l80.38 141.44 19.6-13.55-9.5-83.05-7.8-44.82z" fill="#3384ff"/>
  <path d="M49.08 215.1c3.2 6.7 5.2 13.7 4.93 20.86l-.05.95c-.76 14.7-6.18 31.69-8.12 44.04-1.4 8.87-1 15.34 4.18 16.86 12.58 3.67-1.83 6.29 46.83 22.49s57.15 2.21 57.27-.96-6.89-27.3-5.24-28.83 23.07 19.98 29.55 17.05.74-19.05.74-19.05-14.59-33.95-14.28-41.9-22.09-45.37-22.09-45.37l-15.23-99.16s-5.86-12.95-13.74-14.85-14.4 2.63-14.4 2.63l13.17 29.13 13.9 51.41-2.32 19s-16.17-34.02-26.79-47.16-33.26-44.21-33.26-44.21-5.29-17.84-1.3-23.17c4-5.35-16.64-6.15-25.44 15.77-4.67 11.62-12.24 28.94-16.98 45.07-4.23 14.29-6.23 27.64-2.04 35.28 6.4 11.66 22.5 27 30.7 44.12z" fill="#575a89"/>
  <path d="M18.37 170.98c6.4 11.66 22.5 27 30.7 44.12 2.15-7.73 4.77-15.72 4.77-15.72s10.03-53.67-19.64-67.54a19.86 19.86 0 00-13.8 3.86c-4.22 14.29-6.22 27.64-2.03 35.28z" opacity=".1"/>
  <path d="M136.16 167.6l25.15 7.33 34.93 1.36 3.59 30.34-57.4 4.14s-14.33-40.3-6.27-43.17z" fill="#575a89"/>
  <path d="M95.14 269.64s33.65 5.58 25.97 15.7-37.5-.51-37.5-.51z" fill="#ffb9b9"/>
  <path d="M53.96 236.91c-.76 14.7-6.18 31.69-8.12 44.04 10.72 10.15 20.92 19.1 24.76 19.25 7.94.3 20.7-.79 25.4.98s7.46-28.33 7.46-28.33-2.8-9.64-15.33-14.9c-8.44-3.55-24.64-13.2-34.17-21.04z" opacity=".1"/>
  <path d="M34.57 122.32S7.7 118.1 9.15 162.67s-2.83 73.03 7.98 81.4 45.9 46.3 53.84 46.6 20.7-.78 25.4.99 7.46-28.33 7.46-28.33-2.81-9.65-15.33-14.9-42-23.9-41.75-30.24 7.46-28.33 7.46-28.33 10.03-53.67-19.64-67.54z" fill="#575a89"/>
  <circle cx="100.65" cy="58.1" r="34.95" fill="#ffb9b9"/>
  <path d="M124.19 8a6.75 6.75 0 002.94 1.48 2.1 2.1 0 002.43-1.68c.8 1.66 1.7 3.43 3.33 4.28s4.16.13 4.4-1.7a7.7 7.7 0 001.77 3.75c1.01.97 2.85 1.21 3.73.13-.71 3.9-.27 7.92-.5 11.89s-1.28 8.17-4.27 10.78c-4.37 3.8-10.94 2.86-16.7 2.14a5.07 5.07 0 00-2.6.14c-2.16.92-2.06 3.92-2.1 6.26a17.37 17.37 0 01-15.2 16.5 8.7 8.7 0 01-6.48-1.59c-1.63-1.38-2.46-3.63-4.33-4.67-3.04-1.7-6.73.77-8.96 3.45s-4.41 5.97-7.86 6.46c-4.56.65-8.03-4-9.73-8.27a48.22 48.22 0 01.96-37.47C74.53-.87 107.04-4.15 124.19 8z" fill="#2f2e41"/>
  <path d="M963.22 563.77c12.31 21 37.14 29.3 37.14 29.3s4.87-25.72-7.44-46.71-37.14-29.3-37.14-29.3-4.87 25.72 7.44 46.71z" fill="#f2f2f2"/>
  <path d="M970.9 556.44c21.3 11.8 30.21 36.4 30.21 36.4s-25.6 5.5-46.89-6.28-30.2-36.4-30.2-36.4 25.6-5.5 46.88 6.28z" fill="#3384ff"/>
</svg>
